<svg id="Icons" xmlns="http://www.w3.org/2000/svg" viewBox="0 0 2000 2000"><defs><style>.cls-1{fill:#ededed;}</style></defs><path class="cls-1" d="M662.47,840.54l-.08,0c16.27-113,76.92-194.39,100-221.92L758.74,614C671.22,656.6,613,760.65,613,760.65c9.84-102,80.46-190.31,115.07-228l-3.83-4.53C599.72,605.26,517.84,733.94,509.82,898l145.79-18.39A378.2,378.2,0,0,1,662.47,840.54Z"/><path class="cls-1" d="M875.17,1238.77S957,1467.22,986.49,1596.55l5.92-3.19a33.23,33.23,0,0,0,17.28-25.6L1022.5,1452l12.82,115.78a33.24,33.24,0,0,0,17.27,25.6l5.93,3.19c29.47-129.33,111.32-357.78,111.32-357.78,77-197.34,203.08-217.27,203.08-217.27l257.58-68.33a40.71,40.71,0,0,0-33.91-20.2c-102.73-3.31-211.31-17.48-211.31-17.48-103.8-13.12-115.57-99.84-115.57-99.84l-47.48-262.88c-27.83-159.74,34.38-233.15,34.38-233.15-137.52,40.92-119.51,270.12-119.51,270.12l13.1,176.8c-63.7-57.2-86.11-137.11-92.64-167.59l-5.16,0-29.9,131.56L992.6,599l-5.15,0c-6.53,30.48-28.94,110.39-92.64,167.59l13.1-176.8s18-229.2-119.51-270.12c0,0,62.21,73.41,34.38,233.15L775.3,815.65s-11.77,86.72-115.57,99.84c0,0-108.58,14.17-211.31,17.48a40.74,40.74,0,0,0-33.92,20.2l257.59,68.33S798.22,1041.43,875.17,1238.77Zm18-388.74,119.51,55.66s-1.64,27.84-31.1,31.11L1022.5,1071l40.93-134.24c-29.47-3.27-31.1-31.11-31.1-31.11L1151.83,850c76.4,128.24,28,193.32-30.12,225.84a204.25,204.25,0,0,1-198.41,0C865.18,1043.35,816.78,978.27,893.17,850Z"/><path class="cls-1" d="M949.65,918c-54.84,34-21.69,117.87-21.69,117.87h-6.14c-56.89-74.89-4.91-134.65-4.91-134.65Z"/><path class="cls-1" d="M832.17,1243.16c13.9,43.3,46,139.14,63.54,191.45-195.19-50.46-342.43-212.45-378.21-414.43l162,42.83A375,375,0,0,0,832.17,1243.16Z"/><path class="cls-1" d="M995.49,467.57c0-41.13,27-86.56,27-86.56s27,45.43,27,86.56c0,32.33-27,126.46-27,126.46S995.49,499.9,995.49,467.57Z"/><path class="cls-1" d="M1123.19,1035.84h-6.14s33.15-83.9-21.69-117.87l32.74-16.78S1180.07,961,1123.19,1035.84Z"/><path class="cls-1" d="M1382.54,840.54l.08,0c-16.27-113-76.92-194.39-100-221.92l3.67-4.56C1373.79,656.6,1432,760.65,1432,760.65c-9.83-102-80.46-190.31-115.07-228l3.84-4.53c124.55,77.14,206.43,205.82,214.45,369.88L1389.4,879.61A378.2,378.2,0,0,0,1382.54,840.54Z"/><path class="cls-1" d="M1365.45,1063l162.06-42.83c-35.79,202-183,364-378.21,414.43,17.56-52.31,49.63-148.15,63.54-191.45A375,375,0,0,0,1365.45,1063Z"/></svg>