<svg id="Icons" xmlns="http://www.w3.org/2000/svg" viewBox="0 0 2000 2000"><defs><style>.cls-1{fill:#ededed;}</style></defs><path class="cls-1" d="M1000,628.16h.12l102.34-97.89s-16.7-69-102.34-110.26h-.24c-85.64,41.27-102.34,110.26-102.34,110.26l102.34,97.89Z"/><path class="cls-1" d="M1559.34,1146.82c-38.79,51.43-105.29.2-105.29.2L1409,1114.77a.17.17,0,0,1-.07-.18l14.16-44.93a276.48,276.48,0,0,1,38.85-77.79l14.75-20.61a.15.15,0,0,1,.13-.07l39.78-1.29c.06,0,.09,0,.12,0,.55-1.3,19.27-45.72-25.47-77.74l-.13-.09c-44.38-31.76-80.73,0-81.79,1,0,.05,0,.06,0,.13l11.62,38.06a.16.16,0,0,1,0,.15L1406.16,952a276.44,276.44,0,0,1-61.08,61.87l-38,27.91a.18.18,0,0,1-.2,0l-15.4-11a.15.15,0,0,1-.06-.17c47.71-200.53-117.34-247-221.43-256.71a.17.17,0,0,1-.15-.15L1058,612.5a.16.16,0,0,0-.28-.1l-57.58,56.38a.16.16,0,0,1-.22,0L942.31,612.4a.16.16,0,0,0-.28.1L930.12,773.69a.17.17,0,0,1-.15.15C825.88,783.57,660.83,830,708.54,1030.55a.15.15,0,0,1-.06.17l-15.4,11a.18.18,0,0,1-.2,0l-38-27.91A276.44,276.44,0,0,1,593.84,952l-14.75-20.61a.16.16,0,0,1,0-.15l11.62-38.06c0-.07,0-.08,0-.13-1.06-.94-37.41-32.74-81.79-1l-.13.09c-44.74,32-26,76.44-25.47,77.74,0,0,.06,0,.12,0l39.78,1.29a.15.15,0,0,1,.13.07l14.75,20.61a276.48,276.48,0,0,1,38.85,77.79l14.16,44.93a.17.17,0,0,1-.07.18L546,1147s-66.5,51.23-105.29-.2l-6.07,6.36s40,145,158.73,60.06L785.53,1075.7s65.07-50.07,104-1.34a.19.19,0,0,1,0,.08l95.26,435.73-9.57,9.57-176-423.31a.16.16,0,0,0-.24-.07l-75.25,52.55a.17.17,0,0,0-.05.22l133.49,229.62a.16.16,0,0,1-.26.19L682.75,1178.48a.16.16,0,0,0-.22,0l-74,54.26a.17.17,0,0,0,0,.26l391.38,347h.26l391.38-347a.17.17,0,0,0,0-.26l-74-54.26a.16.16,0,0,0-.22,0L1143,1378.94a.16.16,0,0,1-.26-.19l133.49-229.62a.17.17,0,0,0,0-.22l-75.25-52.55a.16.16,0,0,0-.24.07l-176,423.31-9.57-9.57,95.26-435.73a.19.19,0,0,1,0-.08c39-48.73,104,1.34,104,1.34l192.21,137.54c118.73,85,158.73-60.06,158.73-60.06Zm-297.49-137.33c-76.39-54.66-120.16-14.13-141.68,21.73a.16.16,0,0,1-.28-.13l25.79-117.93c0-.08,0-.14,0-.17-2.17-.75-58.46-20-114.18-12.89a.16.16,0,0,0-.14.15l-31.16,340.28a.16.16,0,0,1-.32,0L968.68,900.25a.16.16,0,0,0-.14-.15c-55.72-7.07-112,12.14-114.18,12.89-.08,0-.05.09,0,.17l25.79,117.93a.16.16,0,0,1-.28.13c-21.52-35.86-65.29-76.39-141.68-21.73l-6.82,4.89c1.81-51.27,35.52-145.88,260.07-145.88h17.2c224.86,0,258.41,94.66,260.13,145.92Z"/></svg>