<svg id="Icons" xmlns="http://www.w3.org/2000/svg" viewBox="0 0 2000 2000"><defs><style>.cls-1{fill:#ededed;}</style></defs><path class="cls-1" d="M1618.27,432.17,1325.14,921.83l19.72-74.44S1292.76,732,1125.29,596.81l-31-5V871l-29.77-26.05V575.72l23.57-9.92L1000,511.22,911.92,565.8l23.57,9.92V844.91L905.72,871V591.85l-31,5C707.24,732,655.14,847.39,655.14,847.39l19.72,74.44L381.73,432.17c-2.47,49.74-4.16,116.65-1.2,186.34L530.22,820.7l-4.38,3.52L382.9,665.35c3.63,51.2,10.15,97.27,21.11,142.6L538.93,932.18l-3.56,4.34L415.44,853.73c13.74,43.39,32.55,82,56.45,124.64,5.39,7.93,8.75,12.51,8.75,12.51l107.85,64.2-2.49,5-85.93-29.51c40,58.62,95.77,116.52,157.55,166.62v98.69a95.61,95.61,0,0,1-12.29,46.9l-21.21,37.7,306.41,187.32L945.42,1067H809c-65.75-45.9-72-111.65-72-111.65h191a29.3,29.3,0,0,1,7-38.4l5.4-4.19,59.54,98.83,59.54-98.83,5.4,4.19a29.3,29.3,0,0,1,7,38.4h191s-6.2,65.75-72,111.65H1054.58l14.89,500.86,306.41-187.32-21.21-37.7a95.61,95.61,0,0,1-12.29-46.9v-98.69c61.78-50.1,117.58-108,157.55-166.62L1414,1060.11l-2.49-5,107.85-64.2s3.36-4.58,8.75-12.51c23.9-42.68,42.71-81.25,56.45-124.64l-119.93,82.79-3.56-4.34L1596,808c11-45.33,17.48-91.4,21.11-142.6L1474.16,824.22l-4.38-3.52,149.69-202.19C1622.43,548.82,1620.74,481.91,1618.27,432.17Z"/></svg>