<svg id="Icons" xmlns="http://www.w3.org/2000/svg" viewBox="0 0 2000 2000"><defs><style>.cls-1{fill:#ededed;}</style></defs><path class="cls-1" d="M1308.13,886.38c132.72,225.36,32.23,382.5,32.23,382.5,5.41-220.12-132.75-290.36-132.75-290.36h0a243.45,243.45,0,0,1,47.56,145.37c0,131.28-101.84,237.7-227.46,237.7s-224.24-106.46-227.46-237.7c-1.35-55,28.4-146.34,112.71-232.35,55.3-56.42,95.14-116.18,114.68-156,78-158.74,21-340.16-34.34-372.53,0,0,77,176.49-42.46,326.73-58.88,74-140.32,134.06-208.14,196.37-17.19,15-74.89,81.73-96.27,117.31-32.19,53.57-48.62,115.21-48.62,180.28,0,225.52,188.74,408.35,421.56,408.35s427.87-185.45,427.87-411C1447.22,1063.86,1385,939.69,1308.13,886.38Z"/><path class="cls-1" d="M1068.94,1082l-43.73-201.26L981.48,1082a26,26,0,0,1-19.91,19.66l-213.64,47.68L961.57,1197a26,26,0,0,1,19.91,19.66l43.73,201.26,43.73-201.26a26,26,0,0,1,19.9-19.66l213.65-47.68-213.65-47.68A26,26,0,0,1,1068.94,1082Z"/><path class="cls-1" d="M1224.58,781.36l-17.22-79.25-17.22,79.25a27.35,27.35,0,0,1-21,20.69l-84.46,18.85,84.46,18.85a27.36,27.36,0,0,1,21,20.69l17.22,79.25,17.22-79.25a27.36,27.36,0,0,1,21-20.69L1330,820.9l-84.45-18.85A27.35,27.35,0,0,1,1224.58,781.36Z"/><path class="cls-1" d="M818.26,626.87c6.09,23.91-2.13,50.52-22.65,80.25-58.69,85-170.9,191.7-231.63,311.84-92,182-27.51,367.84,36.22,443.83,0,0-245-159.84-122.79-433.58,26-58.29,79.88-127.37,183.28-216.94,35.54-30.79,79.49-68.9,116.09-109.79C798.75,678,813.53,653.29,818.26,626.87Z"/></svg>