<svg id="Icons" xmlns="http://www.w3.org/2000/svg" viewBox="0 0 2000 2000"><defs><style>.cls-1{fill:#ededed;}</style></defs><path class="cls-1" d="M1313,744.51S1417.76,831.36,1468.22,958c76.82,192.81,13.31,382.18-46.32,460.2,0,0,233.12-156.64,127.16-441.6C1491.11,820.75,1313,744.51,1313,744.51Z"/><polygon class="cls-1" points="1000.42 761.1 1038.7 803.21 964.46 914.21 939.18 925.03 745.24 773.86 756.9 680.58 994.55 485.93 1261.98 687.1 1269.31 827.32 1263.26 856.79 968.53 1187.25 1042.53 1283.87 1009.22 1599.79 969.62 1615.53 929.86 1299.1 826.9 1180.87 1139.5 793 994.2 664.56 895.8 756 939.18 803.21 1000.42 761.1"/><path class="cls-1" d="M849.73,381.85c-28.55,44.45-24.08,116.47,31.53,153.91l60.9-49.83C856.5,458.42,849.73,381.85,849.73,381.85Z"/><path class="cls-1" d="M704.37,1080.06c0-56.67,19.87-108.82,53.17-150.41h0s-154.47,72.69-148.42,300.45c0,0-81.73-202.78,83-439.64-108.87,68-202.44,227.49-202.44,348.8,0,168.94,114.32,316.08,276.18,384.48,6.11,4.29,9.83,6.74,9.83,6.74L581.72,1556,934,1597.2,899,1319.14C787.36,1293.17,704.37,1196,704.37,1080.06Z"/><path class="cls-1" d="M1329.61,1412.92l0,0c68.46-73.35,109.72-167.81,109.72-270.93,0-67.33-18.37-131.1-54.35-186.53-15.42-23.75-46.62-73.65-72-110.32l-6,29.09-51.33,57.55c111.34,214.94-9.88,324-9.88,324,22.46-133.57-25.52-224.49-48.31-258.72l-.65.73c11.84,31.51,16.77,59.87,16.18,82.33a252,252,0,0,1-136.07,217.39l-31.56,299.26L1393.4,1556l-193.94-25.51S1279.41,1478.34,1329.61,1412.92Z"/></svg>