<svg id="Icons" xmlns="http://www.w3.org/2000/svg" viewBox="0 0 2000 2000"><defs><style>.cls-1{fill:#ededed;}</style></defs><path class="cls-1" d="M1503.76,987c0-72.53-37.07-173.23-67.3-251.29,23.84,8.22,47.72,17.43,71.36,27.86l-23.37-56.07c-22.87-9.69-45.91-18.19-68.86-25.76-4.46-11.81-8.33-22.44-11.27-31.45-11.66-35.78,21.22-81.93,61.38-86V505.36s-182.58-16.08-166.37,145.42c-152.71-31.74-276.85-25.44-276.85-25.44s-124.12-6.3-276.8,25.42c16.2-161.48-166.37-145.4-166.37-145.4v58.93c40.16,4.07,73,50.22,61.38,86-2.94,9-6.8,19.63-11.27,31.43-23,7.58-46,16.09-68.92,25.78l-23.37,56.07c23.66-10.44,47.57-19.66,71.43-27.88C578.33,813.76,541.25,914.47,541.25,987c0,274.67,194.78,499.16,466.5,507.67v.3h10.66v0c1,0,1.92.07,2.89.07.41,0,.8,0,1.2,0s.8,0,1.2,0c1,0,1.93-.07,2.9-.07v0h10.66v-.3C1309,1486.16,1503.76,1261.67,1503.76,987Zm-303.48,12,3.94-.91V1282a356.74,356.74,0,0,1-68.75,30.51V1025A228.23,228.23,0,0,1,1200.28,999Zm3.94-13.35-3.94-.91a228.23,228.23,0,0,1-64.81-26V675.24c20.88,1.65,44,4,68.75,7.21Zm-359.49-.91-3.94.91V682.44c24.78-3.22,47.87-5.55,68.75-7.2V958.79A228.35,228.35,0,0,1,844.73,984.78Zm-3.94,13.35,3.94.91a228.35,228.35,0,0,1,64.81,26v287.48A356.74,356.74,0,0,1,840.79,1282Zm211.1,112.59a229.24,229.24,0,0,1,54.12-65v275a370.37,370.37,0,0,1-68.75,9.36V1169.64C1037.26,1149.1,1041.89,1128.66,1051.89,1110.72ZM1314.7,718.15c29.28,78.88,59.7,187.78,59.7,269.06,0,115-55.32,213.94-140.72,275.64V686.59c24.09,3.69,49.45,8.27,75.56,13.89C1310.9,706.23,1312.64,712.06,1314.7,718.15ZM1106,673.23V938.06a229.37,229.37,0,0,1-53.49-63.84c-10.52-18.62-15.26-39.94-15.26-61.33V671.26C1051.41,671.19,1075.18,671.47,1106,673.23Zm-98.26-2V812.89c0,21.39-4.74,42.71-15.26,61.33A229.54,229.54,0,0,1,939,938.06V673.22C969.84,671.47,993.61,671.19,1007.75,671.26Zm-337.14,316c0-81.28,30.42-190.18,59.69-269.06,2.07-6.1,3.81-11.92,5.47-17.68,26.11-5.62,51.47-10.2,75.56-13.89v576.27C725.92,1201.15,670.61,1102.24,670.61,987.21ZM939,1320.74v-275a229.4,229.4,0,0,1,54.12,65c10,17.94,14.63,38.38,14.63,58.92V1330.1A370.26,370.26,0,0,1,939,1320.74Z"/><path class="cls-1" d="M1544.13,985.28l-5.76,1.21c12.78,112-5.48,218.34-54.25,309.46-57.65,107.69-156.32,168-202.93,191.79l2.22,5.54C1623.32,1406.46,1572.76,1093.54,1544.13,985.28Z"/><path class="cls-1" d="M560.89,1296c-48.78-91.12-67-197.44-54.25-309.46l-5.76-1.21c-28.63,108.26-79.2,421.18,260.72,508l2.22-5.54C717.21,1464,618.54,1403.64,560.89,1296Z"/></svg>