<svg id="Icons" xmlns="http://www.w3.org/2000/svg" viewBox="0 0 2000 2000"><defs><style>.cls-1{fill:#ededed;}</style></defs><path class="cls-1" d="M1558.19,1076.71s7.83-27.37,7.83-76.71a382.21,382.21,0,0,0-7.83-76.71l-127.37-25.65A440.13,440.13,0,0,0,1377,767.81l72-108.25s-13.82-24.88-48.71-59.77a382.6,382.6,0,0,0-59.77-48.71L1232.22,623a440,440,0,0,0-129.83-53.82l-25.65-127.38S1049.37,434,1000,434a382.67,382.67,0,0,0-76.71,7.82L897.67,569.21A440,440,0,0,0,767.83,623L659.59,551.08s-24.88,13.81-59.78,48.71a383.31,383.31,0,0,0-48.71,59.77l72,108.25a439.86,439.86,0,0,0-53.82,129.83L441.86,923.29S434,950.66,434,1000a382.67,382.67,0,0,0,7.82,76.71l127.38,25.65a440,440,0,0,0,53.82,129.83l-72,108.25s13.82,24.88,48.71,59.77a382.39,382.39,0,0,0,59.78,48.71l108.24-72a440,440,0,0,0,129.84,53.82l25.65,127.37S950.68,1566,1000,1566a382.21,382.21,0,0,0,76.71-7.83l25.65-127.37A440,440,0,0,0,1232.22,1377l108.25,72s24.88-13.82,59.77-48.71a382.6,382.6,0,0,0,48.71-59.77l-72-108.25a440.24,440.24,0,0,0,53.82-129.83ZM1000,1362.36c-200.13,0-362.37-162.23-362.37-362.36S799.9,637.64,1000,637.64,1362.39,799.87,1362.39,1000,1200.16,1362.36,1000,1362.36Z"/><path class="cls-1" d="M1098,1045.47l174.69-40.25V994.78L1098,954.53a76.57,76.57,0,0,1-57.74-58.85l-35-166H994.78l-34.94,166a76.59,76.59,0,0,1-57.74,58.85L727.41,994.78v10.44l174.69,40.25a76.59,76.59,0,0,1,57.74,58.85l34.94,166h10.49l35-166A76.57,76.57,0,0,1,1098,1045.47Z"/><path class="cls-1" d="M1147.22,924l54.06,12.46A211.94,211.94,0,0,0,1060.8,797.9l11.11,52.78A166.84,166.84,0,0,1,1147.22,924Z"/><path class="cls-1" d="M1071.91,1149.32l-11.11,52.78a211.94,211.94,0,0,0,140.48-138.52L1147.22,1076A166.89,166.89,0,0,1,1071.91,1149.32Z"/><path class="cls-1" d="M939.25,1202.1l-11.11-52.78a166.87,166.87,0,0,1-75.3-73.28l-54.07-12.46A212,212,0,0,0,939.25,1202.1Z"/><path class="cls-1" d="M852.84,924a166.87,166.87,0,0,1,75.3-73.28l11.11-52.78A212,212,0,0,0,798.77,936.42Z"/><path class="cls-1" d="M1036.77,683.72l9.94,47.2c112.8,19.51,202.12,108.45,222.18,221.07l47.38,10.92C1299.24,816.81,1182.92,700.59,1036.77,683.72Z"/><path class="cls-1" d="M953.35,730.92l9.93-47.2C817.13,700.59,700.81,816.81,683.79,962.91L731.17,952C751.22,839.37,840.54,750.43,953.35,730.92Z"/><path class="cls-1" d="M1046.71,1269.08l-9.94,47.2c146.15-16.87,262.47-133.09,279.5-279.19L1268.89,1048C1248.83,1160.63,1159.51,1249.57,1046.71,1269.08Z"/><path class="cls-1" d="M731.17,1048l-47.38-10.92c17,146.1,133.34,262.32,279.49,279.19l-9.93-47.2C840.54,1249.57,751.22,1160.63,731.17,1048Z"/></svg>