<svg id="Icons" xmlns="http://www.w3.org/2000/svg" viewBox="0 0 2000 2000"><defs><style>.cls-1{fill:#ededed;}</style></defs><path class="cls-1" d="M1114.17,1367.21l-4.2-8.2c-43.82,13.9-85.83,17.78-121.19,17.22A381.89,381.89,0,0,1,890,1359l-4.2,8.2s110.74,75.34,110.74,242.42h7.65C1004.22,1442.55,1114.17,1367.21,1114.17,1367.21Z"/><path class="cls-1" d="M635.6,1116.65l8.2-4.2c-13.9-43.82-17.78-85.83-17.22-121.19a381.32,381.32,0,0,1,17.22-98.74l-8.2-4.21S560.26,999.05,393.18,999.05v7.66C560.26,1006.71,635.6,1116.65,635.6,1116.65Z"/><path class="cls-1" d="M1364.4,888.31l-8.2,4.21c13.9,43.81,17.78,85.82,17.22,121.18a381.46,381.46,0,0,1-17.22,98.75l8.2,4.2s75.34-110.73,242.42-110.73v-7.66C1439.74,998.26,1364.4,888.31,1364.4,888.31Z"/><polygon class="cls-1" points="866.55 783.92 866.55 871.8 785.18 871.8 521.54 557.71 866.55 783.92"/><polygon class="cls-1" points="778.67 1133.78 866.55 1133.78 866.55 1215.15 552.46 1478.79 778.67 1133.78"/><path class="cls-1" d="M1296.48,910l-37.84,19.84h-186v-186L1092.46,706s-27.16-9.15-92.46-9.15c-54.32,0-92.46,9.15-92.46,9.15l19.84,37.84v186h-186L703.52,910s-9.15,27.16-9.15,92.46c0,54.32,9.15,92.46,9.15,92.46l37.84-19.84h186v186L907.54,1299s27.16,9.15,92.46,9.15c54.31,0,92.46-9.15,92.46-9.15l-19.84-37.84v-186h186l37.84,19.84s9.15-27.16,9.15-92.46C1305.63,948.17,1296.48,910,1296.48,910Z"/><polygon class="cls-1" points="1133.13 783.92 1133.13 871.8 1214.5 871.8 1478.14 557.71 1133.13 783.92"/><polygon class="cls-1" points="1221.01 1133.78 1133.13 1133.78 1133.13 1215.15 1447.22 1478.79 1221.01 1133.78"/><path class="cls-1" d="M885.83,637.06l4.2,8.2c43.82-13.9,85.83-17.78,121.19-17.22A381.89,381.89,0,0,1,1110,645.26l4.2-8.2s-110.74-75.34-110.74-242.42h-7.65C995.78,561.72,885.83,637.06,885.83,637.06Z"/></svg>