<svg id="Icons" xmlns="http://www.w3.org/2000/svg" viewBox="0 0 2000 2000"><defs><style>.cls-1{fill:#ededed;}</style></defs><path class="cls-1" d="M1017,415.68s-34.56-11.39-66.08-11.39c-27.9,0-65.47,11.39-65.47,11.39v225H1017Z"/><path class="cls-1" d="M859.19,471.13l-121.9,46.18a14.13,14.13,0,0,0-9.43,13.05V640.7H859.19Z"/><path class="cls-1" d="M1170.05,721.29V482.64a14.25,14.25,0,0,0-10.72-13.47l-116.17-33V755.3l111.54-17.16C1163.55,736.78,1170.05,729.65,1170.05,721.29Z"/><path class="cls-1" d="M1323.15,714.83V598.56a14.13,14.13,0,0,0-9.43-13L1196.26,541V755.3l112.61-23.82C1317.22,729.71,1323.15,722.8,1323.15,714.83Z"/><path class="cls-1" d="M1230.24,1091c42-34.7,68.36-82.83,74-134.82L1318.72,781H1026.51l53.74,140.27-87.4-100H852.42l-43.68-27.07H943.19c40.73,0,73.75-30.73,73.76-68.65v-58H731.16c-28.27,33.42-33.71,47.72-62,81.15l51.89,225.56c10.72,41.29,34.74,78.54,68.85,106.75l7.44,6.16,122.2,374.24,36.36-233.19,61,367.48,61.3-369,37.59,234.69L1230.24,1091Zm-194.65-37.69L1017,1210.71,998.3,1053.3,875,1076.91,1017,1008l141.93,69Z"/><path class="cls-1" d="M1233.09,1307a105.58,105.58,0,1,0,149.31,0A105.58,105.58,0,0,0,1233.09,1307Zm148.69,109.24c-5.47,10.52-13.45,19.68-23.34,25.57,5.86-9.86,10.54-19.54,13.57-29.61a103.82,103.82,0,0,0,4.61-30.54c0-1.85-.08-3.7-.18-5.54a10.92,10.92,0,0,1-1.12.75c-9,5.19-23.61-3.27-32.63-18.9s-9-32.52,0-37.72c4.39-2.54,10.13-1.81,15.9,1.42l-.1-.17c9.91,5.88,17.89,15,23.36,25.57a76,76,0,0,1,0,69.17Z"/><path class="cls-1" d="M1395.47,1072.72a93.85,93.85,0,1,0,93.85,93.85A93.85,93.85,0,0,0,1395.47,1072.72Zm43.07,154c5.86-9.87,10.54-19.55,13.57-29.62a104.1,104.1,0,0,0,4.61-30.54c0-2.1-.09-4.2-.22-6.3a11.35,11.35,0,0,1-1.61,1.13c-9,5.2-23.61-3.27-32.64-18.9s-9-32.52,0-37.72c4.51-2.6,10.44-1.77,16.37,1.68l0,0c9.9,5.88,17.89,15,23.35,25.57a76,76,0,0,1,0,69.17C1456.41,1211.67,1448.43,1220.83,1438.54,1226.73Z"/><path class="cls-1" d="M1403.33,1025a77.41,77.41,0,0,0-64.76-131.5l-9.37,93.14a214.34,214.34,0,0,1-12.67,54.1A77.41,77.41,0,0,0,1403.33,1025Zm-36.92-106.53c3.68-2.8,9.52-1.8,15.17,2a55.79,55.79,0,0,1,18.58,18.71,59.73,59.73,0,0,1,0,62.18,54.6,54.6,0,0,1-22.92,21.05c2.78-4.37,5.41-8.54,7.66-12.81a95.17,95.17,0,0,0,5.76-12.88,77.42,77.42,0,0,0,4.75-26.45,76.4,76.4,0,0,0-2-17c-.12.11-.23.23-.35.32-5.58,4.24-16.06-.18-23.42-9.87S1360.83,922.66,1366.41,918.43Z"/><path class="cls-1" d="M707.21,1043.42a215.09,215.09,0,0,1-12.62-37.08L667.48,894.17a77.42,77.42,0,1,0,39.73,149.25Zm-76.8-104.29a55.77,55.77,0,0,1,18.38-18.59c5.71-3.89,11.62-4.94,15.35-2.11,5.57,4.23,4.13,15.52-3.23,25.2s-17.83,14.11-23.41,9.87c-.12-.09-.22-.2-.33-.3a76.15,76.15,0,0,0-2,17,77.42,77.42,0,0,0,4.75,26.45,95.1,95.1,0,0,0,5.75,12.88c2.25,4.27,4.89,8.44,7.67,12.81a54.55,54.55,0,0,1-22.92-21.05,59.73,59.73,0,0,1,0-62.18Z"/><path class="cls-1" d="M648.17,1307a105.58,105.58,0,1,0,149.31,0A105.58,105.58,0,0,0,648.17,1307Zm39.31,51c-9,15.63-23.64,24.09-32.63,18.9-.26-.15-.5-.31-.74-.47-.09,1.75-.16,3.5-.16,5.26a103.82,103.82,0,0,0,4.61,30.54c3,10.07,7.71,19.75,13.56,29.61-9.89-5.89-17.86-15-23.33-25.57a76,76,0,0,1,0-69.17A67,67,0,0,1,664,1327.37c8-7.68,17.17-10.83,23.52-7.16C696.53,1325.41,696.51,1342.29,687.48,1357.93Z"/><path class="cls-1" d="M728.94,1166.57a93.85,93.85,0,1,0-93.84,93.85A93.84,93.84,0,0,0,728.94,1166.57Zm-121-24.07c-9,15.63-23.64,24.1-32.64,18.9a10.27,10.27,0,0,1-1.23-.84c-.12,2-.19,4-.2,6a103.77,103.77,0,0,0,4.61,30.54c3,10.07,7.71,19.75,13.56,29.62-9.89-5.9-17.86-15.06-23.33-25.58a76,76,0,0,1,0-69.17,66.52,66.52,0,0,1,16.62-20.83c7.8-7.1,16.54-9.91,22.68-6.37C617,1110,617,1126.87,607.92,1142.5Z"/></svg>