<svg id="Icons" xmlns="http://www.w3.org/2000/svg" viewBox="0 0 2000 2000"><defs><style>.cls-1{fill:#ededed;}</style></defs><path class="cls-1" d="M543.5,901a486.75,486.75,0,0,0,61.33,398l49.63-49.64,40.74-40.74a362.15,362.15,0,0,1-45.57-176.2c0-8.22.37-16.34.91-24.42l-.84-.84Z"/><path class="cls-1" d="M988.2,669c8.54-.6,17.12-1,25.81-1,8.4,0,16.71.39,25,1l107-107a486,486,0,0,0-264.56.2L988.14,669Z"/><path class="cls-1" d="M809.72,1032.4a203.73,203.73,0,0,0,7.37,53.7l54-54-53.88-53.88A203.9,203.9,0,0,0,809.72,1032.4Z"/><path class="cls-1" d="M1067.71,835.48a199.81,199.81,0,0,0-109.05.43L1013,890.22Z"/><path class="cls-1" d="M1178.55,1055.8l32,32a200.16,200.16,0,0,0,.11-110.28l-55.19,55.2,23,23Z"/><path class="cls-1" d="M959.09,1229a199.74,199.74,0,0,0,109.11.19l-54.65-54.65Z"/><path class="cls-1" d="M1196,1354.47l-4.16-4.16a363.26,363.26,0,0,1-354.43.64L786,1402.31l-39,39a487.07,487.07,0,0,0,535.1-.69l-85.45-85.45Z"/><path class="cls-1" d="M1410.46,1285.3l13.11,13.11a486.83,486.83,0,0,0,60.76-398.17l-106.91,106.91c.58,8.35,1,16.76,1,25.26a362.1,362.1,0,0,1-45.23,175.6l76.53,76.52Z"/><path class="cls-1" d="M1550.36,496.05c-36.55-36.55-68.58-3.06-68.58-3.06s20.53,9.47,41.35,30.29a168.89,168.89,0,0,1,30.29,41.36S1586.92,532.6,1550.36,496.05Z"/><path class="cls-1" d="M1534.64,794.87l-84.17,7.28c-13.87-29.47-35.61-58.63-54-80.55l142-142s-9.46-20.54-30.29-41.36c-16.45-16.46-41.35-30.29-41.35-30.29l-142,142c-21.93-18.4-51.09-40.14-80.56-54l7.29-84.17-16,.29L1075.09,672.51s65.37,5.67,142.07,54.81L626.82,1317.65l-39.31,141.26,141.25-39.32,590.33-590.33c46.46,71.13,54.34,140.48,54.34,140.48l160.92-158.85ZM1060.78,996.12l-14.42,3.93,3.93-14.42,215.82-215.81,10.48,10.49Z"/><path class="cls-1" d="M546.77,493s-32-33.49-68.58,3.06-3.06,68.59-3.06,68.59a168.89,168.89,0,0,1,30.29-41.36C526.24,502.46,546.77,493,546.77,493Z"/><path class="cls-1" d="M937.72,966.07,752,780.31l10.48-10.49L948.21,955.59l45.72-45.73L811.39,727.32c76.7-49.14,142.07-54.81,142.07-54.81L793,512.07l-16-.29L784.29,596c-29.47,13.86-58.63,35.6-80.56,54l-142-142s-24.9,13.83-41.35,30.29c-20.83,20.82-30.29,41.36-30.29,41.36l142,142c-18.4,21.92-40.14,51.08-54,80.55l-84.17-7.28.3,16L655.12,969.74s7.88-69.35,54.34-140.48L892,1011.8l.52-.53Z"/><polygon class="cls-1" points="1441.05 1458.91 1401.73 1317.65 1135.94 1051.87 1050.5 1137.3 1049.73 1138.07 1034 1153.8 1299.79 1419.59 1441.05 1458.91"/></svg>