<svg id="Icons" xmlns="http://www.w3.org/2000/svg" viewBox="0 0 2000 2000"><defs><style>.cls-1{fill:#ededed;}</style></defs><path class="cls-1" d="M1272.32,1155s229.73-124.91,231.47-403.55l-94.33-21,85.6-74.25s-48-172.94-214-246.32l-33.19,162.47-121.19,76.5v24.49c0,24.3-6.07,33.35-24.9,38.06V644.94l-79.27-69.89-79.26,69.89v66.54c-18.83-4.71-24.9-13.76-24.9-38.06V648.93l-121.19-76.5L764,410C598,483.34,550,656.28,550,656.28l85.6,74.25-94.33,21C543,1030.13,772.69,1155,772.69,1155l71.62-180.81,74.25-28.82.27-21.21c.82-27.16,24.41-23.39,24.41-23.39v60.06L982.32,983v267.28l-27.11,16.69-.74,9.58,23.49,20v193l-35.82,41.05,7,13.1h27.08l46.29,46.3,46.3-46.3h27.08l7-13.1-35.81-41.05v-193l23.49-20c-.32-4-.44-5.56-.75-9.58l-27.11-16.69V983l39.09-22.1V900.81s23.59-3.77,24.41,23.39l.27,21.21,74.24,28.82ZM916.6,854.74l-69.4,28.51c-1.69-1.93-1.66-1.91-3.36-3.84l38.87-67.48-38.24-80.2a3.38,3.38,0,0,1,4.7-4.41L916.6,765Zm211.8,0V765l67.44-37.64a3.38,3.38,0,0,1,4.7,4.41l-38.24,80.2,38.87,67.48-3.37,3.84Z"/><path class="cls-1" d="M1403.59,1157.56c-39.92,48.83-175.59,221-213.78,269.44l5.88,9.48,93.23-19.39,1.74,85.6,148.5-179.07L1337,1349.83l71.7-189.32Z"/><path class="cls-1" d="M636.35,1160.51l71.7,189.32-102.2-26.21,148.5,179.07,1.74-85.6,93.23,19.39,5.88-9.48c-38.19-48.49-173.86-220.61-213.78-269.44Z"/></svg>