<svg id="Icons" xmlns="http://www.w3.org/2000/svg" viewBox="0 0 2000 2000"><defs><style>.cls-1{fill:#ededed;}</style></defs><path class="cls-1" d="M1077.65,688.86a7.55,7.55,0,0,1,11.71-6l49.58,33.61,5.54-4.68L1024.2,419.7v-3.92l-.75,2-.76-2v3.92L902.41,711.78l5.54,4.68,49.59-33.61a7.55,7.55,0,0,1,11.7,6l41.23,788.25-70.66,99.43,8.85,12,74.79-30.15,74.78,30.15,8.86-12-70.67-99.43Z"/><path class="cls-1" d="M1117.93,768.25l-4.82.83L1094,979.35c53,9.82,95.85,28.68,130.6,52.56L1085.8,1428.4l13.76,6,171.79-362.79c81.47,84.43,97.74,196.37,102,226.45l-287.46,198.32,16.81,22.17L1575,1208.23l-1.76-19.08-130-80.25c-19.14-52.6-56.55-110.72-114-159.48L1380.1,842a5.76,5.76,0,0,1,10.09-.62l25.49,39.46,5.31-1.6-.31-245.61,1.15-2.8-1.11,1.16,0-1.63-1.15,2.79-171,170.32,2.58,5.07,45.12-8.41a6,6,0,0,1,6.59,7.94L1268.5,906.4a466.21,466.21,0,0,0-110.8-46.75h0Z"/><path class="cls-1" d="M959.86,1496.94,671.64,1298.1c4.28-30.08,20.55-142,102-226.45l171.79,362.79,13.76-6L820.44,1031.91c34.75-23.88,77.62-42.74,130.6-52.56h0L931.89,769.08l-4.81-.83-39.77,91.4h0a466.21,466.21,0,0,0-110.8,46.75l-34.42-98.34a6,6,0,0,1,6.58-7.94l45.13,8.41,2.58-5.07-171-170.32-1.15-2.79,0,1.63-1.11-1.16,1.14,2.8L624,879.23l5.31,1.6,25.49-39.46a5.76,5.76,0,0,1,10.09.62l50.87,107.43c-57.47,48.76-94.88,106.88-114,159.48l-130,80.25L470,1208.23,943.07,1519.1Z"/></svg>